HIERARCHY
ROOT Hips
{
	OFFSET 0.000000 0.000000 0.000000
	CHANNELS 6 Xposition Yposition Zposition Zrotation Yrotation Xrotation 
	JOINT LeftUpLeg_virtual
	{
		OFFSET 0.000000 0.000000 0.000000
		CHANNELS 3 Zrotation Yrotation Xrotation
		JOINT LeftUpLeg
		{
			OFFSET 8.479694 -4.795517 -0.379053
			CHANNELS 3 Zrotation Yrotation Xrotation
			JOINT LeftLeg
			{
				OFFSET 0.485052 -32.551468 0.112863
				CHANNELS 3 Zrotation Yrotation Xrotation
				JOINT LeftFoot
				{
					OFFSET 0.438033 -32.635670 -3.012641
					CHANNELS 3 Zrotation Yrotation Xrotation
					JOINT LeftToeBase
					{
						OFFSET 0.970169 -13.225353 11.864223
						CHANNELS 3 Zrotation Yrotation Xrotation
						End Site
						{
							OFFSET 0.000000 0.000000 0.000000
						}
					}
				}
			}
		}
	}
	JOINT RightUpLeg_virtual
	{
		OFFSET 0.000000 0.000000 0.000000
		CHANNELS 3 Zrotation Yrotation Xrotation
		JOINT RightUpLeg
		{
			OFFSET -8.479694 -4.795517 -0.379053
			CHANNELS 3 Zrotation Yrotation Xrotation
			JOINT RightLeg
			{
				OFFSET -0.484100 -32.551483 0.112903
				CHANNELS 3 Zrotation Yrotation Xrotation
				JOINT RightFoot
				{
					OFFSET -0.438985 -32.635651 -3.012681
					CHANNELS 3 Zrotation Yrotation Xrotation
					JOINT RightToeBase
					{
						OFFSET -0.970169 -13.225354 11.864223
						CHANNELS 3 Zrotation Yrotation Xrotation
						End Site
						{
							OFFSET 0.000000 0.000000 0.000000
						}
					}
				}
			}
		}
	}
	JOINT Spine_virtual
	{
		OFFSET 0.000000 0.000000 0.000000
		CHANNELS 3 Zrotation Yrotation Xrotation
		JOINT Spine
		{
			OFFSET 0.000000 7.722015 1.166203
			CHANNELS 3 Zrotation Yrotation Xrotation
			JOINT Spine1
			{
				OFFSET 0.000000 12.024086 0.248766
				CHANNELS 3 Zrotation Yrotation Xrotation
				JOINT Spine2
				{
					OFFSET -0.000000 11.503036 -0.491240
					CHANNELS 3 Zrotation Yrotation Xrotation
					JOINT Neck_virtual
					{
						OFFSET 0.000000 0.000000 0.000000
						CHANNELS 3 Zrotation Yrotation Xrotation
						JOINT Neck
						{
							OFFSET 0.000000 18.430687 -3.123054
							CHANNELS 3 Zrotation Yrotation Xrotation
							JOINT Head
							{
								OFFSET -0.000000 9.051071 1.034021
								CHANNELS 3 Zrotation Yrotation Xrotation
								End Site
								{
									OFFSET 0.000000 0.000000 0.000000
								}
							}
						}
					}
					JOINT LeftShoulder_virtual
					{
						OFFSET 0.000000 0.000000 0.000000
						CHANNELS 3 Zrotation Yrotation Xrotation
						JOINT LeftShoulder
						{
							OFFSET 6.197824 13.665230 -4.064723
							CHANNELS 3 Zrotation Yrotation Xrotation
							JOINT LeftArm
							{
								OFFSET 7.778132 -0.187073 -1.709282
								CHANNELS 3 Zrotation Yrotation Xrotation
								JOINT LeftForeArm
								{
									OFFSET 21.954697 0.000000 -2.041093
									CHANNELS 3 Zrotation Yrotation Xrotation
									JOINT LeftHand
									{
										OFFSET 22.992908 0.000000 -0.870901
										CHANNELS 3 Zrotation Yrotation Xrotation
										End Site
										{
											OFFSET 0.000000 0.000000 0.000000
										}
									}
								}
							}
						}
					}
					JOINT RightShoulder_virtual
					{
						OFFSET 0.000000 0.000000 0.000000
						CHANNELS 3 Zrotation Yrotation Xrotation
						JOINT RightShoulder
						{
							OFFSET -6.197824 13.665230 -4.064723
							CHANNELS 3 Zrotation Yrotation Xrotation
							JOINT RightArm
							{
								OFFSET -7.778132 -0.187073 -1.709282
								CHANNELS 3 Zrotation Yrotation Xrotation
								JOINT RightForeArm
								{
									OFFSET -21.954697 0.000000 -2.041093
									CHANNELS 3 Zrotation Yrotation Xrotation
									JOINT RightHand
									{
										OFFSET -22.992908 0.000000 -0.870901
										CHANNELS 3 Zrotation Yrotation Xrotation
										End Site
										{
											OFFSET 0.000000 0.000000 0.000000
										}
									}
								}
							}
						}
					}
				}
			}
		}
	}
}
MOTION
Frames: 14
Frame Time: 0.033333
-5.560121 81.022842 17.109623 179.955322 6.921700 179.991262 -4.529085 -0.935857 10.880918 -0.379779 1.088782 -22.778450 8.230706 3.640604 28.600744 1.522763 -7.199089 -13.587345 0.000000 0.000000 0.000000 -1.946696 -1.371971 11.352128 -2.076534 -0.661608 -22.042009 -1.437092 3.743496 27.585522 8.690101 3.210069 -10.717655 0.000000 0.000000 0.000000 2.479596 1.329943 -0.438363 -4.301007 0.933188 -1.710442 -0.123359 -2.868459 3.416531 0.022500 -0.004632 -0.009416 -0.226727 -2.092546 4.994212 -6.742250 5.538345 -7.124239 0.000000 0.000000 0.000000 1.263258 -1.156225 1.917026 -0.337309 4.788393 -8.209690 2.733141 -16.722878 -52.814151 0.818643 -30.669674 -0.043038 0.000000 0.000000 0.000000 -2.632487 0.010695 1.482815 20.842537 -8.815669 -16.624136 -4.572513 10.662053 -55.011986 3.504418 21.071405 3.395928 0.000000 0.000000 0.000000 
-5.505385 81.022354 17.001772 179.961797 6.864356 179.988926 -4.553443 -1.078944 10.969203 -0.234627 0.842938 -22.720541 8.308917 3.487428 28.452468 1.608694 -7.093542 -13.831839 0.000000 0.000000 0.000000 -1.984453 -1.398942 11.406090 -2.031698 -0.604426 -22.066736 -1.456677 3.807281 27.549097 8.613423 3.155963 -10.656102 0.000000 0.000000 0.000000 2.433453 1.380725 -0.414614 -4.358900 0.981719 -1.732415 -0.145287 -2.823695 3.409434 -0.011496 0.029773 -0.002142 -0.210441 -1.903612 4.984232 -6.681307 5.460628 -7.117430 0.000000 0.000000 0.000000 1.312516 -1.229089 1.932085 -0.326551 4.754515 -8.259250 3.280152 -16.647666 -53.181110 0.767221 -30.843427 0.125133 0.000000 0.000000 0.000000 -2.621303 -0.023947 1.411478 20.798563 -8.909913 -16.530523 -4.638438 10.547267 -55.021658 3.475328 21.152679 3.383302 0.000000 0.000000 0.000000 
-5.439178 81.017273 16.856476 -179.975485 6.851671 179.991549 -4.533859 -0.974441 11.072333 -0.176823 0.881871 -22.765536 8.293116 3.391237 28.560233 1.586529 -7.100920 -13.878757 0.000000 0.000000 0.000000 -1.921418 -1.368272 11.490536 -2.049824 -0.483148 -22.093234 -1.487978 3.627228 27.679615 8.573146 3.153263 -10.741418 0.000000 0.000000 0.000000 2.408731 1.341843 -0.395373 -4.442613 0.969839 -1.777154 -0.136150 -2.833488 3.404643 0.017278 0.013734 0.010302 -0.269803 -1.955432 4.977468 -6.699649 5.690413 -7.114661 0.000000 0.000000 0.000000 1.269525 -1.166442 1.893872 -0.234093 4.952164 -8.283635 4.058014 -16.467677 -53.625058 0.760271 -31.035649 0.060466 0.000000 0.000000 0.000000 -2.689800 0.048299 1.397987 20.762249 -8.890266 -16.498679 -4.717417 10.285038 -55.114723 3.440739 21.067126 3.454608 0.000000 0.000000 0.000000 
-5.384254 81.008514 16.709591 179.968723 6.749878 179.975881 -4.553067 -1.201958 11.155908 -0.139599 0.929319 -22.721632 8.296881 3.522552 28.709348 1.551712 -7.162601 -14.027829 0.000000 0.000000 0.000000 -1.970097 -1.333358 11.555120 -1.946765 -0.644448 -22.074739 -1.499965 3.724545 27.779156 8.508835 3.145341 -10.870693 0.000000 0.000000 0.000000 2.338556 1.306816 -0.436215 -4.608902 0.986782 -1.748241 -0.193219 -2.806817 3.448407 -0.049193 0.021564 0.031807 -0.231324 -1.889170 4.925297 -6.683414 5.260768 -7.078592 0.000000 0.000000 0.000000 1.327235 -1.129053 1.849437 -0.142511 5.109133 -8.292849 5.009564 -16.179350 -54.153852 0.733711 -31.223639 0.132670 0.000000 0.000000 0.000000 -2.589470 0.039006 1.372219 20.873135 -8.912798 -16.540348 -4.899203 10.029445 -55.225973 3.430047 20.820373 3.575428 0.000000 0.000000 0.000000 
-5.348297 81.001778 16.575968 179.932168 6.769973 179.938629 -4.604295 -1.175905 11.228968 -0.101207 0.972468 -22.719733 8.286174 3.492907 28.829279 1.532652 -7.194694 -14.087468 0.000000 0.000000 0.000000 -1.892633 -1.277235 11.597658 -2.003475 -0.684960 -22.010034 -1.509921 3.758878 27.886062 8.488487 3.182933 -11.021332 0.000000 0.000000 0.000000 2.312483 1.179849 -0.346607 -4.767160 0.910275 -1.890048 -0.184159 -2.695149 3.431629 0.003319 0.123478 0.010365 -0.286670 -1.844679 5.038599 -6.590161 5.351771 -7.026593 0.000000 0.000000 0.000000 1.287522 -1.130672 1.948530 -0.140743 5.293568 -8.351973 6.013985 -15.753760 -54.592800 0.591592 -31.462112 0.377996 0.000000 0.000000 0.000000 -2.620441 0.023058 1.514079 20.921056 -8.932335 -16.656514 -4.967437 9.684822 -55.444354 3.408566 20.544398 3.767176 0.000000 0.000000 0.000000 
-5.326317 80.997429 16.456633 -179.969911 6.674264 -179.912223 -4.587804 -1.331349 11.190068 -0.024914 1.034603 -22.770690 8.267186 3.445411 28.951222 1.568321 -7.165011 -14.141465 0.000000 0.000000 0.000000 -1.860698 -1.357492 11.545171 -1.981822 -0.553637 -21.997944 -1.527568 3.679779 27.906736 8.393678 3.122637 -11.056835 0.000000 0.000000 0.000000 2.363417 1.160142 -0.439785 -4.856826 0.944374 -2.042992 -0.156289 -2.809528 3.428314 0.024265 -0.007944 0.027731 -0.337937 -1.934192 5.098207 -6.531069 5.327817 -7.010772 0.000000 0.000000 0.000000 1.253268 -1.061004 1.989349 -0.282290 5.486803 -8.331946 6.937320 -15.329268 -54.627426 0.602894 -31.692303 0.481993 0.000000 0.000000 0.000000 -2.659931 0.076349 1.624726 21.022486 -8.921359 -16.759227 -5.052570 9.241769 -55.707084 3.398113 20.339719 3.933901 0.000000 0.000000 0.000000 
-5.306061 80.995407 16.347826 179.942003 6.574510 -179.926130 -4.677399 -1.438032 11.169683 -0.016617 0.978983 -22.701138 8.272718 3.395801 29.054228 1.610232 -7.109265 -14.201333 0.000000 0.000000 0.000000 -1.880919 -1.550105 11.524165 -2.034688 -0.491249 -21.895399 -1.521418 3.708654 27.961445 8.369289 3.132456 -11.126931 0.000000 0.000000 0.000000 2.324356 1.107039 -0.485489 -4.972679 0.929267 -2.105936 -0.170573 -2.805860 3.492302 -0.003149 -0.021523 0.021485 -0.277610 -1.855155 5.152424 -6.348092 5.228823 -6.879475 0.000000 0.000000 0.000000 1.320387 -1.080809 2.061714 -0.416229 5.704084 -8.311485 7.620468 -14.986161 -54.673168 0.650134 -31.905805 0.520524 0.000000 0.000000 0.000000 -2.598074 0.099267 1.603069 21.104103 -8.878508 -16.745891 -5.042218 8.563188 -55.900785 3.400536 20.223818 4.173821 0.000000 0.000000 0.000000 
-5.281640 80.994141 16.259298 179.953177 6.524828 -179.913207 -4.693272 -1.519863 11.152481 0.006588 0.875928 -22.644150 8.296494 3.376166 29.137481 1.684562 -7.021537 -14.223889 0.000000 0.000000 0.000000 -1.875722 -1.603618 11.466234 -2.009070 -0.539842 -21.788708 -1.508299 3.724504 27.969906 8.367912 3.149690 -11.177727 0.000000 0.000000 0.000000 2.311676 1.080655 -0.532522 -5.019121 0.946950 -2.185671 -0.159029 -2.767851 3.560109 -0.007242 0.003121 0.037083 -0.259386 -1.840397 5.199393 -6.107883 5.091717 -6.718963 0.000000 0.000000 0.000000 1.336008 -1.111069 2.145002 -0.686667 5.866342 -8.324157 8.089615 -14.642735 -54.697296 0.676328 -32.130692 0.583851 0.000000 0.000000 0.000000 -2.600229 0.067697 1.635371 21.196083 -8.958824 -16.846947 -5.033353 8.043216 -56.142232 3.371888 20.162003 4.358132 0.000000 0.000000 0.000000 
-5.265404 80.989716 16.199594 -179.977657 6.476660 -179.838143 -4.657827 -1.580338 11.125819 0.033129 0.740467 -22.668672 8.318024 3.380697 29.190470 1.759541 -6.928144 -14.271038 0.000000 0.000000 0.000000 -1.869090 -1.592056 11.420563 -1.942272 -0.674900 -21.715511 -1.503446 3.712687 27.981936 8.372509 3.146882 -11.191415 0.000000 0.000000 0.000000 2.315734 1.025941 -0.594398 -4.993389 0.950783 -2.288898 -0.123115 -2.764662 3.610047 0.022977 -0.001663 0.022791 -0.295301 -1.878702 5.248920 -5.844840 5.133478 -6.560246 0.000000 0.000000 0.000000 1.286390 -1.079351 2.215051 -1.027646 6.069604 -8.405128 8.260672 -14.276923 -54.700605 0.646281 -32.382514 0.638078 0.000000 0.000000 0.000000 -2.623933 0.061298 1.740012 21.145929 -8.965090 -16.866628 -4.881850 7.628439 -56.421140 3.360663 20.171062 4.552546 0.000000 0.000000 0.000000 
-5.268521 80.982483 16.180878 -179.960964 6.424031 -179.878605 -4.635730 -1.625666 11.124319 0.050516 0.643760 -22.626050 8.335040 3.355254 29.227097 1.794816 -6.862895 -14.310698 0.000000 0.000000 0.000000 -1.881977 -1.671248 11.420339 -1.921157 -0.678695 -21.689493 -1.484210 3.694345 28.000325 8.409945 3.157187 -11.199785 0.000000 0.000000 0.000000 2.320913 1.015090 -0.578449 -4.916767 0.991224 -2.327209 -0.158984 -2.735244 3.710659 -0.042525 0.015046 0.042798 -0.222404 -1.850489 5.237378 -5.476821 4.809930 -6.347599 0.000000 0.000000 0.000000 1.355299 -1.071792 2.276749 -1.344822 6.209931 -8.471730 8.274638 -14.001471 -54.855035 0.717214 -32.624856 0.555621 0.000000 0.000000 0.000000 -2.564056 0.060729 1.690007 21.136020 -8.997131 -16.845485 -4.706484 7.109453 -56.566855 3.364796 20.256951 4.691592 0.000000 0.000000 0.000000 
-5.286107 80.969765 16.198757 -179.977821 6.411798 -179.906978 -4.608151 -1.562953 11.169805 0.022105 0.539629 -22.643204 8.343064 3.374050 29.257474 1.808973 -6.824074 -14.305481 0.000000 0.000000 0.000000 -1.856054 -1.619497 11.409537 -1.966350 -0.794677 -21.696135 -1.453344 3.675201 28.054647 8.506909 3.207578 -11.259870 0.000000 0.000000 0.000000 2.297713 1.003724 -0.495501 -4.814040 0.994004 -2.413340 -0.129308 -2.766728 3.736939 0.024882 -0.008937 0.012694 -0.268576 -1.909517 5.291824 -5.047371 4.533977 -6.126847 0.000000 0.000000 0.000000 1.264739 -1.057834 2.293204 -1.617760 6.356153 -8.474042 7.978521 -13.630068 -54.955613 0.664766 -32.839717 0.565959 0.000000 0.000000 0.000000 -2.627933 0.063487 1.842428 20.946378 -8.960616 -16.805993 -4.364198 6.900170 -56.851684 3.406850 20.337686 4.796825 0.000000 0.000000 0.000000 
-5.317544 80.956802 16.241022 -179.971892 6.357417 179.980402 -4.595455 -1.477103 11.199483 -0.002618 0.474600 -22.621303 8.334376 3.341845 29.281086 1.768258 -6.824716 -14.351841 0.000000 0.000000 0.000000 -1.860193 -1.647747 11.443407 -1.971803 -0.914990 -21.674403 -1.439644 3.701450 28.108742 8.608371 3.233924 -11.271323 0.000000 0.000000 0.000000 2.301213 1.035243 -0.362521 -4.672899 1.052890 -2.420443 -0.141947 -2.768593 3.843570 0.018376 0.002402 0.008023 -0.268616 -1.888842 5.260404 -4.556904 4.299586 -5.837213 0.000000 0.000000 0.000000 1.231485 -1.094905 2.333621 -1.773403 6.350733 -8.554684 7.541976 -13.501129 -54.936062 0.622253 -33.007347 0.585822 0.000000 0.000000 0.000000 -2.659991 0.004102 1.792462 20.761909 -8.952016 -16.598104 -4.008594 6.624999 -57.038814 3.453625 20.419045 4.765111 0.000000 0.000000 0.000000 
-5.365250 80.946541 16.315033 -179.961879 6.350914 179.982984 -4.604628 -1.505583 11.126339 -0.040898 0.523108 -22.635672 8.334501 3.327347 29.331551 1.718219 -6.848567 -14.404317 0.000000 0.000000 0.000000 -1.911756 -1.638435 11.397288 -1.958320 -1.034670 -21.704948 -1.426945 3.698896 28.137215 8.715468 3.224642 -11.219542 0.000000 0.000000 0.000000 2.324287 1.058471 -0.320592 -4.510257 1.120310 -2.457857 -0.148602 -2.767739 3.919549 -0.021919 0.014318 0.026151 -0.229064 -1.877999 5.268075 -4.044322 4.105967 -5.547266 0.000000 0.000000 0.000000 1.239317 -1.116659 2.360913 -1.781885 6.307439 -8.569457 6.830131 -13.475275 -54.778612 0.582055 -33.203015 0.563997 0.000000 0.000000 0.000000 -2.671678 0.022217 1.740092 20.480963 -8.852646 -16.236128 -3.516911 6.389381 -57.183986 3.490733 20.500183 4.632872 0.000000 0.000000 0.000000 
-5.419650 80.940918 16.416069 -179.932755 6.407409 179.939394 -4.582119 -1.493174 11.056279 -0.088016 0.517747 -22.637112 8.365731 3.368287 29.397619 1.692168 -6.825729 -14.377751 0.000000 0.000000 0.000000 -1.894267 -1.654165 11.319361 -2.014208 -1.169717 -21.700162 -1.377581 3.716431 28.174163 8.877698 3.268069 -11.157245 0.000000 0.000000 0.000000 2.327852 1.015123 -0.295778 -4.379747 1.140771 -2.452066 -0.126854 -2.815211 3.981889 0.024710 -0.008093 -0.014160 -0.272832 -1.944198 5.361311 -3.591531 3.701572 -5.319945 0.000000 0.000000 0.000000 1.206038 -1.156745 2.392752 -1.685938 6.221407 -8.512702 5.776588 -13.379769 -54.373565 0.454303 -33.513751 0.602124 0.000000 0.000000 0.000000 -2.685126 -0.023564 1.888818 20.173075 -8.717247 -15.795591 -2.892339 6.587708 -57.354908 3.496383 20.448097 4.332441 0.000000 0.000000 0.000000 
